<svg xmlns="http://www.w3.org/2000/svg" version="1.1" xmlns:xlink="http://www.w3.org/1999/xlink" xmlns:svgjs="http://svgjs.com/svgjs" width="1980" height="1080" preserveAspectRatio="none" viewBox="0 0 1980 1080">
    <g mask="url(&quot;#SvgjsMask1000&quot;)" fill="none">
        <path d="M415.32 170.86L463.16 170.86L463.16 244.06L415.32 244.06z" fill="#e73635"></path>
        <path d="M114.23 24.1L151.7 24.1L151.7 54.87L114.23 54.87z" fill="#d3b714"></path>
        <path d="M1128.04 616.17L1186.8 616.17L1186.8 692.65L1128.04 692.65z" fill="rgba(0, 176, 255, 1)"></path>
        <path d="M141.31 773.86a31.37 31.37 0 1 0 45.57-43.12z" fill="#e73635"></path>
        <path d="M142.79 1066.45a37.39 37.39 0 1 0-37.82-64.5z" stroke="#e73635"></path>
        <path d="M792.03 945.05L853.67 945.05L853.67 1025.53L792.03 1025.53z" fill="#e73635"></path>
        <path d="M194.44 811.69 a102.84 102.84 0 1 0 205.68 0 a102.84 102.84 0 1 0 -205.68 0z" stroke="rgba(0, 176, 255, 1)"></path>
        <path d="M1184.48 639.91L1231.18 639.91L1231.18 686.61L1184.48 686.61z" stroke="rgba(0, 176, 255, 1)"></path>
        <path d="M784.24 323.24L871.15 323.24L871.15 379.56L784.24 379.56z" stroke="rgba(0, 176, 255, 1)"></path>
        <path d="M1031.29 459.4L1138.89 459.4L1138.89 532.29L1031.29 532.29z" fill="#e73635"></path>
        <path d="M820.29 327.03L867.58 327.03L867.58 429.86L820.29 429.86z" stroke="#d3b714"></path>
        <path d="M1811.47 222.3L1821.55 222.3L1821.55 259.34L1811.47 259.34z" fill="rgba(0, 176, 255, 1)"></path>
        <path d="M1832.07 905.81L1906.46 905.81L1906.46 947L1832.07 947z" fill="rgba(0, 176, 255, 1)"></path>
        <path d="M1519.77 1053.05a60.55 60.55 0 1 0-109.97 50.69z" stroke="rgba(0, 176, 255, 1)"></path>
        <path d="M1234.2 1103.33a40.36 40.36 0 1 0-9.89-80.11z" fill="#d3b714"></path>
        <path d="M679.45 932.62a49.45 49.45 0 1 0 10.5 98.34z" stroke="#d3b714"></path>
        <path d="M188.33 172.88a87.82 87.82 0 1 0 148.48-93.82z" stroke="#e73635"></path>
        <path d="M1761.57 979.54 a11.97 11.97 0 1 0 23.94 0 a11.97 11.97 0 1 0 -23.94 0z" fill="#e73635"></path>
        <path d="M1173.91 862.56 a88.27 88.27 0 1 0 176.54 0 a88.27 88.27 0 1 0 -176.54 0z" stroke="#d3b714"></path>
        <path d="M1929.64 229.87L2026.18 229.87L2026.18 242.84L1929.64 242.84z" stroke="rgba(0, 176, 255, 1)"></path>
        <path d="M297.98 418.51L351.89 418.51L351.89 472.42L297.98 472.42z" fill="#d3b714"></path>
        <path d="M1384.07 199a97.39 97.39 0 1 0-89.07 173.23z" fill="#d3b714"></path>
        <path d="M1936.17 988.62L2006.33 988.62L2006.33 1018.66L1936.17 1018.66z" fill="#e73635"></path>
    </g>
    <defs>
        <mask id="SvgjsMask1000">
            <rect width="1980" height="1080" fill="#ffffff"></rect>
        </mask>
    </defs>
</svg>